<?xml version="1.0" standalone="no"?>
<!DOCTYPE svg PUBLIC "-//W3C//DTD SVG 20010904//EN"
 "http://www.w3.org/TR/2001/REC-SVG-20010904/DTD/svg10.dtd">
<svg version="1.0" xmlns="http://www.w3.org/2000/svg"
 width="1000.000000pt" height="1000.000000pt" viewBox="0 0 1000.000000 1000.000000"
 preserveAspectRatio="xMidYMid meet">
<metadata>
Created by potrace 1.11, written by Peter Selinger 2001-2013
</metadata>
<g transform="translate(0.000000,1000.000000) scale(0.100000,-0.100000)"
fill="#000000" stroke="none">
<path d="M2165 9993 c-370 -24 -757 -148 -1064 -338 -600 -372 -980 -965
-1083 -1690 -10 -71 -13 -685 -13 -2975 0 -2724 1 -2891 18 -3000 50 -321 160
-630 314 -880 183 -297 468 -583 764 -767 263 -164 580 -275 924 -325 131 -19
5807 -19 5940 0 349 49 665 160 934 327 600 372 980 965 1083 1690 19 132 19
5798 0 5930 -68 477 -248 884 -544 1230 -363 424 -841 685 -1433 783 -91 15
-346 16 -2945 17 -1565 1 -2867 0 -2895 -2z m3036 -1138 c337 -59 644 -288
791 -591 25 -50 53 -120 64 -157 l19 -67 795 0 c896 0 873 1 1025 -74 187 -93
334 -262 403 -461 l27 -80 0 -2845 c0 -2722 -1 -2848 -18 -2909 -36 -126 -103
-238 -204 -338 -84 -84 -194 -155 -296 -190 l-82 -28 -2725 0 -2725 0 -82 28
c-139 48 -272 146 -367 270 -62 83 -94 143 -127 242 l-24 70 -3 2805 c-2 3017
-5 2885 48 3022 45 120 170 275 292 361 25 18 78 48 116 65 134 62 128 62
1002 62 l795 0 19 66 c42 145 129 294 241 413 163 173 385 296 608 336 99 18
307 18 408 0z"/>
<path d="M4858 8017 c-121 -51 -197 -147 -217 -279 -27 -165 59 -337 204 -408
43 -22 64 -25 155 -25 91 0 112 3 155 25 226 111 280 431 103 610 -68 68 -134
94 -248 98 -82 2 -103 -1 -152 -21z"/>
<path d="M2360 4575 l0 -2775 2640 0 2640 0 0 2775 0 2775 -350 0 -350 0 0
-625 0 -625 -1940 0 -1940 0 0 625 0 625 -350 0 -350 0 0 -2775z"/>
</g>
</svg>
